<svg width="16" height="16" viewBox="0 0 16 16" fill="none" xmlns="http://www.w3.org/2000/svg">
<path d="M13.9375 1.25H12.5V0.5C12.5 0.223875 12.2762 0 12 0C11.7238 0 11.5 0.223875 11.5 0.5V1.25H4.5V0.5C4.5 0.223875 4.27616 0 4 0C3.72384 0 3.5 0.223875 3.5 0.5V1.25H2.0625C0.925219 1.25 0 2.17522 0 3.3125V13.9375C0 15.0748 0.925219 16 2.0625 16H13.9375C15.0748 16 16 15.0748 16 13.9375V3.3125C16 2.17522 15.0748 1.25 13.9375 1.25ZM2.0625 2.25H3.5V2.75C3.5 3.02612 3.72384 3.25 4 3.25C4.27616 3.25 4.5 3.02612 4.5 2.75V2.25H11.5V2.75C11.5 3.02612 11.7238 3.25 12 3.25C12.2762 3.25 12.5 3.02612 12.5 2.75V2.25H13.9375C14.5234 2.25 15 2.72662 15 3.3125V4.5H1V3.3125C1 2.72662 1.47662 2.25 2.0625 2.25ZM13.9375 15H2.0625C1.47662 15 1 14.5234 1 13.9375V5.5H15V13.9375C15 14.5234 14.5234 15 13.9375 15Z" fill="#5B5B5B"/>
</svg>
